# xmcd CD database file
#
# Track frame offsets:
#	150
#	15322
#	28972
#	40177
#	52557
#	65992
#	79085
#	92067
#	104970
#	116980
#	127210
#	135982
#	146272
#	155882
#	170315
#	181162
#	194212
#	209127
#
# Disc length: 2989 seconds
#
# Revision: 5
# Processed by: cddbd v1.5.2PL0 Copyright (c) Steve Scherf et al.
# Submitted via: CDex 1.79
#
DISCID=110bab12
DTITLE=Aretha Franklin - Jazz To Soul - CD2
DYEAR=1992
DGENRE=Soul
TTITLE0=Won't Be Long  (29.11.1960)
TTITLE1=Operation Heartbreak  (16.08.1961)
TTITLE2=Soulville  (08.02.1964)
TTITLE3=Runnin' Out Of Fools  (09.07.1964)
TTITLE4=Trouble In Mind  (10.02.1965)
TTITLE5=Walk On By  (05. - 07.10.1964)
TTITLE6=Every Little Bit Hurts  (05. - 07.10.1964)
TTITLE7=Mockingbird  (05. - 07.10.1964)
TTITLE8=You'll Lose A Good Thing  (05. - 07.10.1964)
TTITLE9=Cry Like A Baby  (15. - 16.12.1964)
TTITLE10=Take It Like You Give It  (15. - 16.12.1964)
TTITLE11=Land Of Dreams  (24.02.1965)
TTITLE12=Can't You Just See Me (15. - 16.12.1964)
TTITLE13=(No, No) I'm Losing You  (25.05.1965)
TTITLE14=Bit Of Soul  (15. - 16.12.1964)
TTITLE15=Why Was I Born  (25.05.1965)
TTITLE16=Until You Were Gone  (12.10.1965)
TTITLE17=Lee Cross  (08.02.1964)
EXTD=Set of 2 disks YEAR: 1992
EXTT0=
EXTT1=
EXTT2=
EXTT3=
EXTT4=
EXTT5=
EXTT6=
EXTT7=
EXTT8=
EXTT9=
EXTT10=
EXTT11=
EXTT12=
EXTT13=
EXTT14=
EXTT15=
EXTT16=
EXTT17=
PLAYORDER=
